<?xml version="1.0"?>
<svg xmlns="http://www.w3.org/2000/svg" xmlns:xlink="http://www.w3.org/1999/xlink" xmlns:svgjs="http://svgjs.com/svgjs" version="1.1" width="512" height="512" x="0" y="0" viewBox="0 0 476 476" style="enable-background:new 0 0 512 512" xml:space="preserve" class=""><g><path xmlns="http://www.w3.org/2000/svg" d="m189.003906 138.195312c-.003906-10.601562-8.59375-19.191406-19.195312-19.195312h-118.609375c-10.601563.003906-19.191407 8.59375-19.195313 19.195312v81.609376c.003906 10.601562 8.59375 19.191406 19.195313 19.195312h118.609375c10.601562-.003906 19.191406-8.59375 19.195312-19.195312zm-21 .804688v48.945312l-17.359375-12.21875c-9.441406-6.476562-22.03125-5.921874-30.863281 1.363282l-21.421875 17.929687c-1.710937 1.5-4.191406 1.734375-6.15625.585938l-40.199219-22.671875v-33.933594zm-116 80v-23.140625l30.46875 17.203125c3.789063 2.148438 8.074219 3.28125 12.429688 3.285156 5.96875-.011718 11.746094-2.109375 16.328125-5.929687l21.449219-17.925781c1.867187-1.605469 4.589843-1.738282 6.601562-.320313l28.722656 20.128906v6.699219zm0 0" fill="#09917b" data-original="#000000" style="" class=""/><path xmlns="http://www.w3.org/2000/svg" d="m89.5625 187.582031c13.101562 0 23.71875-10.617187 23.71875-23.714843 0-13.101563-10.617188-23.71875-23.714844-23.71875-13.101562 0-23.71875 10.617187-23.71875 23.714843.015625 13.09375 10.625 23.703125 23.714844 23.71875zm0-27.433593c2.054688 0 3.71875 1.664062 3.71875 3.71875 0 2.050781-1.664062 3.714843-3.714844 3.714843-2.054687 0-3.71875-1.664062-3.71875-3.71875.003906-2.050781 1.664063-3.710937 3.714844-3.714843zm0 0" fill="#09917b" data-original="#000000" style="" class=""/><path xmlns="http://www.w3.org/2000/svg" d="m103.949219 323h103.382812c5.523438 0 10-4.476562 10-10s-4.476562-10-10-10h-103.382812c-5.519531 0-10 4.476562-10 10s4.480469 10 10 10zm0 0" fill="#09917b" data-original="#000000" style="" class=""/><path xmlns="http://www.w3.org/2000/svg" d="m93.949219 356c0 5.523438 4.480469 10 10 10h233.382812c5.523438 0 10-4.476562 10-10s-4.476562-10-10-10h-233.382812c-5.519531 0-10 4.476562-10 10zm0 0" fill="#09917b" data-original="#000000" style="" class=""/><path xmlns="http://www.w3.org/2000/svg" d="m337.332031 389h-233.382812c-5.519531 0-10 4.476562-10 10s4.480469 10 10 10h233.382812c5.523438 0 10-4.476562 10-10s-4.476562-10-10-10zm0 0" fill="#09917b" data-original="#000000" style="" class=""/><path xmlns="http://www.w3.org/2000/svg" d="m9.597656 269h31.40625v156.882812c-.039062 27.597657 22.269532 50.019532 49.867188 50.117188h259.539062c27.570313 0 49.59375-22.546875 49.59375-50.117188v-305.75c.074219-2.578124-.867187-5.078124-2.621094-6.964843l-106.6875-110.074219c-1.835937-1.953125-4.390624-3.0703125-7.074218-3.09375h-192.75c-27.597656.0976562-49.90625 22.519531-49.867188 50.117188v38.882812h-31.40625c-5.523437 0-9.59374975 4.511719-9.59374975 10.035156v160.398438c-.07421875 2.5625.91406275 5.046875 2.73046875 6.855468 1.816406 1.8125 4.300781 2.792969 6.863281 2.710938zm284.40625-234.222656 72.765625 75.222656h-63.148437c-2.597656.011719-5.089844-1.03125-6.902344-2.894531-1.8125-1.859375-2.792969-4.375-2.714844-6.972657zm-233 15.339844c-.050781-16.558594 13.3125-30.03125 29.867188-30.117188h183.132812v80.132812c-.070312 7.898438 3.019532 15.5 8.582032 21.109376 5.5625 5.609374 13.136718 8.761718 21.035156 8.757812h76.382812v295.882812c0 16.542969-13.050781 30.117188-29.59375 30.117188h-259.539062c-16.554688-.085938-29.917969-13.558594-29.867188-30.117188v-156.882812h149.535156c5.523438 0 10.464844-4.042969 10.464844-9.566406v-160.398438c0-5.523437-4.941406-10.035156-10.464844-10.035156h-149.535156zm-41 58.882812h181v140h-181zm0 0" fill="#09917b" data-original="#000000" style="" class=""/></g></svg>
